<?xml version="1.0" encoding="UTF-8" standalone="no"?>
<svg
   xmlns:dc="http://purl.org/dc/elements/1.1/"
   xmlns:cc="http://creativecommons.org/ns#"
   xmlns:rdf="http://www.w3.org/1999/02/22-rdf-syntax-ns#"
   xmlns:svg="http://www.w3.org/2000/svg"
   xmlns="http://www.w3.org/2000/svg"
   id="svg4803"
   version="1.1"
   viewBox="0 0 42.606748 41.555032"
   height="59.364334mm"
   width="60.866783mm">
  <defs
     id="defs4797" />
  <metadata
     id="metadata4800">
    <rdf:RDF>
      <cc:Work
         rdf:about="">
        <dc:format>image/svg+xml</dc:format>
        <dc:type
           rdf:resource="http://purl.org/dc/dcmitype/StillImage" />
        <dc:title></dc:title>
      </cc:Work>
    </rdf:RDF>
  </metadata>
  <g
     transform="translate(-63.363294,-84.966532)"
     id="layer1">
    <path
       d="m 84.666838,84.966532 c -11.764081,0 -21.303544,9.5377 -21.303544,21.303548 0,9.41246 6.104113,17.39794 14.568663,20.21487 1.064684,0.1972 1.455561,-0.46214 1.455561,-1.02482 0,-0.508 -0.01976,-2.18616 -0.02893,-3.96628 -5.926667,1.28869 -7.177264,-2.51354 -7.177264,-2.51354 -0.969081,-2.46239 -2.365375,-3.11715 -2.365375,-3.11715 -1.93287,-1.32221 0.145697,-1.29504 0.145697,-1.29504 2.139244,0.14992 3.265664,2.19568 3.265664,2.19568 1.900061,3.25649 4.983692,2.31493 6.199364,1.77059 0.191205,-1.37689 0.743303,-2.31704 1.35255,-2.84867 -4.731808,-0.5387 -9.705975,-2.36538 -9.705975,-10.5283 0,-2.32587 0.832203,-4.22628 2.194983,-5.71818 -0.221192,-0.536928 -0.950383,-2.703336 0.206375,-5.637741 0,0 1.788936,-0.572559 5.859992,2.183694 1.69933,-0.472017 3.52178,-0.708731 5.332236,-0.716845 1.810455,0.0081 3.634316,0.244828 5.336823,0.716845 4.066116,-2.756253 5.852583,-2.183694 5.852583,-2.183694 1.159579,2.934405 0.430035,5.100813 0.208844,5.637741 1.365956,1.4919 2.192514,3.39231 2.192514,5.71818 0,8.18232 -4.983691,9.98396 -9.727495,10.51136 0.764117,0.66111 1.444979,1.95756 1.444979,3.94511 0,2.85045 -0.02469,5.14456 -0.02469,5.84624 0,0.56691 0.383471,1.23119 1.463323,1.022 8.459972,-2.82011 14.556324,-10.80276 14.556324,-20.21205 -1e-5,-11.765848 -9.538063,-21.303548 -21.303202,-21.303548"
       style="fill:#1b1817;fill-opacity:1;fill-rule:evenodd;stroke:none;stroke-width:0.03527778"
       id="path18" />
    <path
       d="m 71.432027,115.55378 c -0.04692,0.10618 -0.213431,0.13758 -0.365125,0.0649 -0.154517,-0.0695 -0.2413,-0.21379 -0.191206,-0.31997 0.04586,-0.10866 0.212725,-0.139 0.366889,-0.0667 0.15487,0.0699 0.243064,0.21555 0.189442,0.32173 v 0"
       style="fill:#1b1817;fill-opacity:1;fill-rule:nonzero;stroke:none;stroke-width:0.03527778"
       id="path20" />
    <path
       d="m 72.294921,116.51615 c -0.1016,0.0942 -0.300214,0.0504 -0.434975,-0.0984 -0.139347,-0.14852 -0.165453,-0.34713 -0.06244,-0.44273 0.104775,-0.0938 0.297392,-0.0497 0.437092,0.0984 0.139347,0.15028 0.166511,0.34748 0.06033,0.44273 v 0"
       style="fill:#1b1817;fill-opacity:1;fill-rule:nonzero;stroke:none;stroke-width:0.03527778"
       id="path22" />
    <path
       d="m 73.134885,117.74312 c -0.130528,0.0907 -0.343958,0.006 -0.475897,-0.1838 -0.130528,-0.18944 -0.130528,-0.41663 0.0028,-0.50765 0.132291,-0.091 0.342547,-0.009 0.47625,0.17886 0.130175,0.19261 0.130175,0.4198 -0.0032,0.51259 v 0"
       style="fill:#1b1817;fill-opacity:1;fill-rule:nonzero;stroke:none;stroke-width:0.03527778"
       id="path24" />
    <path
       d="m 74.285646,118.92845 c -0.116769,0.12876 -0.365477,0.0942 -0.547511,-0.0815 -0.186266,-0.17181 -0.238125,-0.41557 -0.121002,-0.54434 0.11818,-0.12912 0.3683,-0.0928 0.551744,0.0815 0.184856,0.17145 0.2413,0.41698 0.116769,0.54434 v 0"
       style="fill:#1b1817;fill-opacity:1;fill-rule:nonzero;stroke:none;stroke-width:0.03527778"
       id="path26" />
    <path
       d="m 75.873146,119.61672 c -0.05151,0.16686 -0.291041,0.24271 -0.532341,0.1718 -0.240947,-0.073 -0.398639,-0.26846 -0.349956,-0.43709 0.0501,-0.16792 0.290689,-0.24695 0.533753,-0.1711 0.240594,0.0727 0.398639,0.2667 0.348544,0.43639 v 0"
       style="fill:#1b1817;fill-opacity:1;fill-rule:nonzero;stroke:none;stroke-width:0.03527778"
       id="path28" />
    <path
       d="m 77.616574,119.74442 c 0.006,0.17569 -0.198614,0.32138 -0.451908,0.32456 -0.254706,0.006 -0.460728,-0.13653 -0.46355,-0.30939 0,-0.17745 0.200025,-0.32173 0.45473,-0.32596 0.253295,-0.005 0.460728,0.13617 0.460728,0.31079 v 0"
       style="fill:#1b1817;fill-opacity:1;fill-rule:nonzero;stroke:none;stroke-width:0.03527778"
       id="path30" />
    <path
       d="m 79.238999,119.4682 c 0.03034,0.17145 -0.145697,0.34748 -0.397228,0.3944 -0.247297,0.0452 -0.47625,-0.0607 -0.507647,-0.23071 -0.03069,-0.17569 0.14852,-0.35172 0.395464,-0.39723 0.251883,-0.0437 0.477308,0.0593 0.509411,0.23354 v 0"
       style="fill:#1b1817;fill-opacity:1;fill-rule:nonzero;stroke:none;stroke-width:0.03527778"
       id="path32" />
  </g>
</svg>
